HIERARCHY
ROOT Hips
{
    OFFSET 0.0 0.0 0.0
    CHANNELS 6 Xposition Yposition Zposition Zrotation Xrotation Yrotation
    JOINT LeftHipJoint
    {
        OFFSET 0.1 0.0 0.0
        CHANNELS 3 Zrotation Xrotation Yrotation
        JOINT LeftUpLeg
        {
            OFFSET 120.30001738311887 0.0 0.0
            CHANNELS 3 Zrotation Xrotation Yrotation
            JOINT LeftLeg
            {
                OFFSET 0.0 0.0 -404.65797037525465
                CHANNELS 3 Zrotation Xrotation Yrotation
                JOINT LeftFoot
                {
                    OFFSET 0.0 0.0 -398.616344162595
                    CHANNELS 3 Zrotation Xrotation Yrotation
                    End Site
                    {
                        OFFSET 0.0 -0.1 0.0
                    }
                }
            }
        }
    }
    JOINT LowerBack
    {
        OFFSET 0.0 0.0 0.1
        CHANNELS 3 Zrotation Xrotation Yrotation
        JOINT Spine
        {
            OFFSET 0.0 0.0 219.2679092387339
            CHANNELS 3 Zrotation Xrotation Yrotation
            JOINT Spine1
            {
                OFFSET 0.0 0.0 251.78886924950456
                CHANNELS 3 Zrotation Xrotation Yrotation
                JOINT LeftShoulder
                {
                    OFFSET 0.1 0.0 0.0
                    CHANNELS 3 Zrotation Xrotation Yrotation
                    JOINT LeftArm
                    {
                        OFFSET 138.0390282760816 0.0 0.0
                        CHANNELS 3 Zrotation Xrotation Yrotation
                        JOINT LeftForeArm
                        {
                            OFFSET 257.39671087631086 0.0 0.0
                            CHANNELS 3 Zrotation Xrotation Yrotation
                            JOINT LeftHand
                            {
                                OFFSET 244.0761998946554 0.0 0.0
                                CHANNELS 3 Zrotation Xrotation Yrotation
                                End Site
                                {
                                    OFFSET 0.1 0.0 0.0
                                }
                            }
                        }
                    }
                }
                JOINT Neck
                {
                    OFFSET 0.0 0.0 0.1
                    CHANNELS 3 Zrotation Xrotation Yrotation
                    JOINT Neck1
                    {
                        OFFSET 0.0 0.0 106.82091624748529
                        CHANNELS 3 Zrotation Xrotation Yrotation
                        End Site
                        {
                            OFFSET 0.0 0.0 117.15103758916506
                        }
                    }
                }
                JOINT RightShoulder
                {
                    OFFSET -0.1 0.0 0.0
                    CHANNELS 3 Zrotation Xrotation Yrotation
                    JOINT RightArm
                    {
                        OFFSET -138.0390282760816 0.0 0.0
                        CHANNELS 3 Zrotation Xrotation Yrotation
                        JOINT RightForeArm
                        {
                            OFFSET -257.39671087631086 0.0 0.0
                            CHANNELS 3 Zrotation Xrotation Yrotation
                            JOINT RightHand
                            {
                                OFFSET -244.0761998946554 0.0 0.0
                                CHANNELS 3 Zrotation Xrotation Yrotation
                                End Site
                                {
                                    OFFSET -0.1 0.0 0.0
                                }
                            }
                        }
                    }
                }
            }
        }
    }
    JOINT RightHipJoint
    {
        OFFSET -0.1 0.0 0.0
        CHANNELS 3 Zrotation Xrotation Yrotation
        JOINT RightUpLeg
        {
            OFFSET -120.30001738311887 0.0 0.0
            CHANNELS 3 Zrotation Xrotation Yrotation
            JOINT RightLeg
            {
                OFFSET 0.0 0.0 -404.65797037525465
                CHANNELS 3 Zrotation Xrotation Yrotation
                JOINT RightFoot
                {
                    OFFSET 0.0 0.0 -398.616344162595
                    CHANNELS 3 Zrotation Xrotation Yrotation
                    End Site
                    {
                        OFFSET 0.0 -0.1 0.0
                    }
                }
            }
        }
    }
}
MOTION
Frames: 9
Frame Time: 0.03333333333333333
0.0 0.0 798.233497209814 24.619094943145818 5.934127599408801 3.895248068622472 0.0 0.0 -3.975693351829396e-16 -0.02717324249725132 -24.78508006009643 -1.1519704760531102 -0.41738794960901177 21.050014536504506 1.2768758213363136 0.0 0.0 -2.981770013872047e-16 0.0 0.0 -3.975693351829396e-16 0.0011338440688186018 1.0299432365811427 0.6513466022977905 2.815262803989978 -3.779165145381083e-16 8.046651411788574e-16 0.0 0.0 -1.987846675914698e-16 -40.27311479628767 3.129563407882777 73.24246845177639 -30.337458349077238 4.78710821922506e-15 6.652794887526206e-15 0.0 0.0 5.963540027744096e-16 0.0 0.0 -1.987846675914698e-16 -8.160176627580922 1.4434769643906238 -5.007746634007364 0.0 0.0 -1.987846675914698e-16 32.83393599464252 -3.6416209479858948 -72.82847501474203 33.62323253600439 -1.6427925966104474e-14 1.1608633499399062e-14 0.0 0.0 0.0 0.0 0.0 -3.975693351829396e-16 -0.025629074830637952 -20.692379204318573 -3.4781613189400367 -1.3656846875563564 21.806750681181278 -2.2574185721828215 0.0 0.0 0.0
0.0 0.0 798.233497209814 24.7469859990885 5.682399250355833 3.9257760982341887 0.0 0.0 1.987846675914698e-16 0.04548097237158306 -24.255608188181668 -1.2542904820599168 -0.5224708025696267 20.979432626833503 1.29579184238992 0.0 0.0 -1.4908850069360235e-16 0.0 0.0 1.987846675914698e-16 -0.0017607692748278835 1.0425856943097314 0.6372725275018378 2.68195649932751 -1.5991458638784284e-15 -3.6024422655081134e-16 -3.4483642953516864e-33 -9.93923337957349e-16 -3.975693351829396e-16 -40.599255198622906 2.9158511458547904 73.03456835527909 -30.055613315332717 3.3810346686467825e-15 -3.2723850275949056e-16 -9.379550883356588e-32 -3.1805546814635168e-15 -3.3793393490549868e-15 -3.4483642953516864e-33 -9.93923337957349e-16 -3.975693351829396e-16 -8.25329695964747 1.588542964910442 -5.05382704803707 -3.4483642953516864e-33 -9.93923337957349e-16 -3.975693351829396e-16 32.140453546511814 -3.618221725283166 -72.83456823717005 33.98392092032628 6.0834200387755685e-15 -1.8589548028238462e-15 0.0 0.0 -1.5902773407317588e-15 0.0 0.0 1.987846675914698e-16 0.03364855015799849 -20.091514887412284 -3.4406659300784197 -1.403644306109033 21.591385313037094 -2.1799335273507308 0.0 0.0 0.0
0.0 0.0 798.233497209814 24.497648492503536 5.476300675099999 3.915787041410377 0.0 0.0 0.0 0.037734628603600454 -23.80182720385186 -1.254435345237537 -0.5236261481496981 21.26793053268623 1.2533323704684691 -1.551763932908259e-33 -5.963540027744094e-16 -2.981770013872047e-16 0.0 0.0 0.0 -0.0016074169354592812 1.1343200039286967 0.6524043743896394 2.6078830016265804 -1.9873319155561802e-16 4.523565360329682e-18 0.0 0.0 -1.987846675914698e-16 -38.63996353524056 3.3451152584495185 73.52529072645565 -30.852241023463023 1.4273173387846943e-14 -3.897631022200166e-15 0.0 0.0 -2.3854160110976384e-15 0.0 0.0 -1.987846675914698e-16 -8.210351482525041 1.5653799538768975 -4.975990786140918 0.0 0.0 -1.987846675914698e-16 31.05390175532223 -2.9577183700471292 -73.3626077229365 35.124120130816195 7.024318644265534e-15 1.1129186819894265e-15 0.0 0.0 -1.5902773407317584e-15 0.0 0.0 0.0 0.02722414279130952 -19.66433617027825 -3.4369553173133363 -1.4082244349005668 21.76988733654159 -2.155539481764531 -2.155227684594804e-35 1.2424041724466862e-17 1.987846675914698e-16
0.0 0.0 798.233497209814 24.726846672467484 5.530052806274728 3.902174604032612 0.0 0.0 0.0 0.019080823748255 -23.80902433020715 -1.2052595187131447 -0.4852651693011607 21.218757965135925 1.166048057118178 -3.1805546814635168e-15 -5.517382872562698e-33 1.987846675914698e-16 0.0 0.0 0.0 -0.0007770974236574354 1.143218932006741 0.731876857643166 2.5106078662607207 -1.8567237397966244e-16 6.005657418095608e-16 0.0 0.0 -1.987846675914698e-16 -38.69289575964899 3.690426907102777 73.6123445326594 -30.901899254627047 -6.343047283719991e-15 -9.282828172069225e-16 0.0 0.0 0.0 0.0 0.0 -1.987846675914698e-16 -8.207477338740537 1.464577223013382 -5.256679657121221 0.0 0.0 -1.987846675914698e-16 30.484103190287062 -2.845643627635104 -73.78503089624841 35.28690779908214 -1.019577328143884e-14 9.917901432716887e-15 0.0 0.0 -1.5902773407317584e-15 0.0 0.0 0.0 0.012139554964985031 -19.638601819119817 -3.489874642242886 -1.3903862466319485 21.47483008509417 -1.9930512841217567 0.0 0.0 1.987846675914698e-16
0.0 0.0 798.233497209814 24.543090119347546 5.59740681342886 3.9131237731109842 0.0 -9.93923337957349e-16 0.0 0.12173930576781633 -23.708203507918252 -1.2378594488307186 -0.5996867534215532 21.30303724925 1.2831087165440918 0.0 0.0 0.0 0.0 -9.93923337957349e-16 0.0 -0.004975001129627127 1.0454601434124215 0.6949695602132641 2.3450827283469438 -2.0281082922616222e-16 -1.9467525699867138e-16 0.0 0.0 -1.987846675914698e-16 -38.7809520190181 3.3719664143337993 73.40872879962512 -30.24492293673459 -1.2034701375487565e-15 -7.73818283732147e-15 0.0 0.0 -1.987846675914698e-16 0.0 0.0 -1.987846675914698e-16 -8.054143608140983 1.3250290825926923 -5.330565708857177 0.0 0.0 -1.987846675914698e-16 30.122850358122772 -2.5681976967661213 -73.79929458599558 35.663199948687605 -1.3085002268785894e-14 8.68039754918745e-16 0.0 0.0 -1.5902773407317584e-15 0.0 -9.93923337957349e-16 0.0 0.09401666167778801 -19.37790278489511 -3.4966953186610543 -1.4749808397416952 21.265870727726817 -1.8793325417370421 -3.1805546814635168e-15 -5.517382872562698e-33 1.987846675914698e-16
0.0 0.0 798.233497209814 24.714340247872105 5.446009983412238 3.927757861548745 2.758691436281349e-33 7.951386703658792e-16 -3.975693351829396e-16 0.09098523963623148 -23.537723298132335 -1.1497056465866644 -0.550964944613352 21.8410590361375 1.214173337007185 0.0 0.0 3.975693351829396e-16 2.758691436281349e-33 7.951386703658792e-16 -3.975693351829396e-16 -0.004195791460178915 1.176481466176147 0.639153847176169 2.201420974130947 1.4332407457845021e-15 2.1594975009084354e-15 -2.758691436281349e-33 -7.951386703658792e-16 -3.975693351829396e-16 -37.073849053461565 4.03582658921652 73.9978471831099 -30.683597999700776 1.549612227250092e-14 -3.243976060853884e-14 0.0 0.0 -2.782985346280577e-15 -2.758691436281349e-33 -7.951386703658792e-16 -3.975693351829396e-16 -8.242480212494327 1.268822258200548 -5.293445194108365 -2.758691436281349e-33 -7.951386703658792e-16 -3.975693351829396e-16 29.190233987776143 -1.8581652317495676 -74.10032402302787 36.691059762997014 8.039949116329545e-15 4.035671302406542e-15 8.827812596100317e-32 -6.3611093629270335e-15 1.5902773407317584e-15 2.758691436281349e-33 7.951386703658792e-16 -3.975693351829396e-16 0.06920014720945024 -19.173580897414762 -3.5231418083217085 -1.4912166657312511 21.720165883485446 -1.8846797081086129 2.758691436281349e-33 -1.5902773407317584e-15 1.987846675914698e-16
0.0 0.0 798.233497209814 24.861092841646954 5.0653488438580965 4.014343300243684 0.0 0.0 0.0 0.07487730431892584 -23.064348176226737 -1.3081655798412342 -0.5999974209080705 21.849371825598247 1.171186357071375 0.0 0.0 3.975693351829396e-16 0.0 0.0 0.0 -0.003533140963176765 1.1827192451600845 0.6358172171810281 1.8970904564646003 -9.872331076911975e-18 -5.962722815158928e-16 0.0 0.0 1.987846675914698e-16 -38.17059091125756 4.218776453069638 73.71658823013482 -30.222480259993603 1.5546585518891047e-15 -5.757329802047482e-15 0.0 0.0 -2.3854160110976376e-15 0.0 0.0 1.987846675914698e-16 -8.303218764761514 1.4101657989877405 -5.483435562507251 0.0 0.0 1.987846675914698e-16 28.82306975769599 -1.551687492682934 -74.25008685617564 37.15115758038611 -2.990174981583236e-15 1.1070949310815542e-14 0.0 0.0 -1.5902773407317584e-15 0.0 0.0 0.0 0.05592045520127424 -18.656118306269256 -3.638993811135366 -1.4960167221933482 21.366605058434793 -1.8092298066846308 -3.1805546814635168e-15 0.0 0.0
0.0 0.0 798.233497209814 24.468597250089953 4.9265309636700145 4.047733142370935 -4.827710013492361e-33 -7.951386703658792e-16 -6.957463365701443e-16 0.08905185390322769 -22.80176065086169 -1.2784316833991891 -0.6124876271534521 22.138908918768593 1.110465041648234 0.0 0.0 9.93923337957349e-17 -4.827710013492361e-33 -7.951386703658792e-16 -6.957463365701443e-16 -0.004585875544923581 1.2674951351300137 0.5692305329318681 2.0484340447657026 -1.2244969421492823e-15 -1.7674565043567105e-15 0.0 0.0 0.0 -36.794127334143155 4.416422411624653 74.15537593627391 -30.659059031205697 4.710409307339999e-15 -2.92142442780292e-14 0.0 0.0 -7.951386703658792e-16 0.0 0.0 0.0 -8.30880864022474 1.4351338280525585 -5.365479853125846 0.0 0.0 0.0 28.380986147116396 -1.3915468951795362 -74.01591865668073 38.33759789277191 -7.867070187009192e-16 1.7109734259722794e-14 0.0 0.0 1.5902773407317582e-15 -4.827710013492361e-33 -7.951386703658792e-16 -6.957463365701443e-16 0.06744198433676289 -18.466731547865425 -3.7260026206214993 -1.5762800533440242 21.75735305777701 -1.7478493148572556 2.694034605743505e-36 1.5530052155583578e-18 -1.987846675914698e-16
0.0 0.0 798.233497209814 24.47015961768581 4.8986644009614 4.17312008932158 -3.1805546814635168e-15 2.2069531490250793e-32 -7.951386703658792e-16 0.014076024295426622 -22.92173187602001 -1.417433611219051 -0.6045240635683704 22.615252706223977 1.071149894732955 -3.1805546814635168e-15 -8.276074308844047e-33 2.981770013872047e-16 -3.1805546814635168e-15 2.2069531490250793e-32 -7.951386703658792e-16 -0.0006173387327270022 1.2132747954013046 0.49339174567701427 2.0086096796738473 1.0452611823646528e-17 5.962623915115933e-16 0.0 0.0 1.987846675914698e-16 -35.70886788073438 4.749576238310605 74.56711336583993 -30.597784516363348 -1.2744414070787384e-14 2.24808635235847e-14 -7.724336021587778e-32 3.1805546814635164e-15 2.7829853462805768e-15 0.0 0.0 1.987846675914698e-16 -8.59225327389068 1.4601123315070683 -5.463466923424468 0.0 0.0 1.987846675914698e-16 27.996038821279054 -1.0468144201976721 -73.99144854740969 39.34969596729526 0.0 0.0 0.0 0.0 -1.5902773407317584e-15 -3.1805546814635168e-15 2.2069531490250793e-32 -7.951386703658792e-16 0.008196144943055855 -18.592357454687594 -3.970766932932986 -1.6183982253920375 21.994191642507158 -1.5843740670068174 0.0 0.0 1.9878466759146977e-16
